<svg width="63.14" height="15.84" viewBox="0 0 63.14 15.84" xmlns="http://www.w3.org/2000/svg"><g id="svgGroup" stroke-linecap="round" fill-rule="evenodd" font-size="9pt" stroke="#000" stroke-width="0.25mm" fill="none" style="stroke:#000;stroke-width:0.25mm;fill:none"><path d="M 49.236 15.576 L 39.996 15.576 L 39.996 0.176 L 49.236 0.176 L 49.236 1.98 L 42.086 1.98 L 42.086 6.666 L 48.246 6.666 L 48.246 8.426 L 42.086 8.426 L 42.086 13.772 L 49.236 13.772 L 49.236 15.576 Z M 63.14 14.916 L 61.182 15.84 L 59.268 11.66 Q 58.695 10.426 57.888 9.755 A 3.566 3.566 0 0 0 57.442 9.438 A 4.323 4.323 0 0 0 56.232 8.954 Q 55.691 8.822 55.058 8.789 A 8.326 8.326 0 0 0 54.626 8.778 L 54.296 8.778 L 54.296 15.576 L 52.206 15.576 L 52.206 0.22 A 54.538 54.538 0 0 1 53.899 0.086 A 47.47 47.47 0 0 1 54.439 0.055 A 41.347 41.347 0 0 1 55.829 0.008 A 49.779 49.779 0 0 1 56.716 0 Q 58.48 0 59.696 0.449 A 4.421 4.421 0 0 1 60.951 1.144 Q 62.37 2.288 62.37 4.092 A 4.374 4.374 0 0 1 62.227 5.241 A 3.228 3.228 0 0 1 61.413 6.677 Q 60.615 7.494 59.228 7.966 A 9.125 9.125 0 0 1 58.652 8.14 A 5.204 5.204 0 0 1 59.406 8.55 A 4.494 4.494 0 0 1 59.708 8.767 Q 60.141 9.107 60.545 9.66 A 6.444 6.444 0 0 1 60.599 9.735 A 6.844 6.844 0 0 1 60.922 10.24 Q 61.087 10.522 61.254 10.857 A 14.34 14.34 0 0 1 61.468 11.308 L 63.14 14.916 Z M 23.936 15.026 L 22.022 15.796 L 20.306 11.396 L 13.178 11.396 L 11.462 15.752 L 9.68 15.026 L 15.708 0.176 L 17.996 0.176 L 23.936 15.026 Z M 26.136 15.532 L 26.136 0.22 Q 26.906 0.132 28.05 0.066 Q 29.033 0.009 30.26 0.001 A 62.774 62.774 0 0 1 30.668 0 Q 32.516 0 33.805 0.46 A 4.973 4.973 0 0 1 35.002 1.067 Q 36.52 2.134 36.52 3.96 A 3.751 3.751 0 0 1 36.382 4.998 A 3.035 3.035 0 0 1 35.871 6.017 Q 35.26 6.815 34.132 7.349 A 6.965 6.965 0 0 1 33.99 7.414 A 6.648 6.648 0 0 1 35.01 7.867 Q 35.775 8.293 36.256 8.877 A 3.356 3.356 0 0 1 36.997 10.66 A 4.425 4.425 0 0 1 37.026 11.176 A 4.253 4.253 0 0 1 36.699 12.87 Q 36.291 13.82 35.376 14.509 A 4.523 4.523 0 0 1 35.337 14.538 Q 33.689 15.752 30.58 15.752 A 48.804 48.804 0 0 1 28.802 15.721 A 41.265 41.265 0 0 1 28.039 15.686 Q 27.051 15.632 26.399 15.562 A 14.419 14.419 0 0 1 26.136 15.532 Z M 0 14.564 L 1.012 12.958 A 3.709 3.709 0 0 0 1.907 13.644 A 4.275 4.275 0 0 0 2.068 13.728 A 2.885 2.885 0 0 0 2.92 14.005 A 2.627 2.627 0 0 0 3.322 14.036 Q 4.378 14.036 4.994 13.277 A 2.189 2.189 0 0 0 5.338 12.649 Q 5.562 12.043 5.601 11.124 A 9.528 9.528 0 0 0 5.61 10.714 L 5.61 0.176 L 7.7 0.176 L 7.7 10.494 A 10.416 10.416 0 0 1 7.606 11.946 Q 7.368 13.632 6.527 14.548 A 3.193 3.193 0 0 1 6.512 14.564 A 3.945 3.945 0 0 1 3.918 15.815 A 5.43 5.43 0 0 1 3.388 15.84 A 5.157 5.157 0 0 1 1.611 15.536 A 4.929 4.929 0 0 1 1.485 15.488 A 5.022 5.022 0 0 1 0.622 15.052 A 4 4 0 0 1 0 14.564 Z M 30.734 8.448 L 28.226 8.448 L 28.226 13.882 A 20.72 20.72 0 0 0 29.752 13.996 A 25.336 25.336 0 0 0 30.734 14.014 Q 32.019 14.014 32.934 13.711 A 3.8 3.8 0 0 0 33.792 13.31 A 2.393 2.393 0 0 0 34.544 12.572 Q 34.838 12.105 34.884 11.495 A 3.081 3.081 0 0 0 34.892 11.264 Q 34.892 10.004 33.909 9.265 A 3.085 3.085 0 0 0 33.814 9.196 A 3.674 3.674 0 0 0 32.786 8.712 Q 31.923 8.448 30.734 8.448 Z M 16.742 2.244 L 13.838 9.636 L 19.624 9.636 L 16.742 2.244 Z M 28.226 1.804 L 28.226 6.82 L 30.646 6.82 A 6.745 6.745 0 0 0 31.753 6.735 Q 32.735 6.571 33.407 6.094 A 2.682 2.682 0 0 0 34.01 5.518 A 2.103 2.103 0 0 0 34.43 4.224 A 2.375 2.375 0 0 0 34.282 3.366 Q 34.059 2.787 33.504 2.401 A 2.709 2.709 0 0 0 33.418 2.343 Q 32.644 1.847 31.431 1.73 A 8.212 8.212 0 0 0 30.646 1.694 Q 29.92 1.694 29.326 1.727 A 39.877 39.877 0 0 0 28.754 1.763 A 31.465 31.465 0 0 0 28.226 1.804 Z M 54.296 1.848 L 54.296 7.018 L 56.716 7.018 A 5.828 5.828 0 0 0 57.799 6.923 Q 58.664 6.76 59.29 6.314 A 2.263 2.263 0 0 0 60.259 4.659 A 3.193 3.193 0 0 0 60.28 4.29 A 2.158 2.158 0 0 0 59.56 2.648 A 2.92 2.92 0 0 0 59.356 2.475 A 3.063 3.063 0 0 0 58.396 1.986 Q 57.972 1.852 57.459 1.797 A 7.028 7.028 0 0 0 56.716 1.76 A 43.826 43.826 0 0 0 56.049 1.765 Q 55.69 1.77 55.374 1.782 Q 54.78 1.804 54.296 1.848 Z" vector-effect="non-scaling-stroke" /></g></svg>